<svg width="212" height="198" viewBox="0 0 212 198" fill="none" xmlns="http://www.w3.org/2000/svg">
<ellipse cx="3.45652" cy="3.21853" rx="3.45652" ry="3.21853" fill="#7F636E" fill-opacity="0.5"/>
<ellipse cx="3.45652" cy="20.384" rx="3.45652" ry="3.21853" fill="#7F636E" fill-opacity="0.5"/>
<ellipse cx="3.45652" cy="37.5495" rx="3.45652" ry="3.21853" fill="#7F636E" fill-opacity="0.5"/>
<ellipse cx="3.45652" cy="71.8806" rx="3.45652" ry="3.21853" fill="#7F636E" fill-opacity="0.5"/>
<ellipse cx="3.45652" cy="54.7151" rx="3.45652" ry="3.21853" fill="#7F636E" fill-opacity="0.5"/>
<ellipse cx="3.45652" cy="89.0461" rx="3.45652" ry="3.21853" fill="#7F636E" fill-opacity="0.5"/>
<ellipse cx="21.8913" cy="3.21853" rx="3.45652" ry="3.21853" fill="#7F636E" fill-opacity="0.5"/>
<ellipse cx="21.8913" cy="20.384" rx="3.45652" ry="3.21853" fill="#7F636E" fill-opacity="0.5"/>
<ellipse cx="21.8913" cy="37.5495" rx="3.45652" ry="3.21853" fill="#7F636E" fill-opacity="0.5"/>
<ellipse cx="21.8913" cy="71.8806" rx="3.45652" ry="3.21853" fill="#7F636E" fill-opacity="0.5"/>
<ellipse cx="21.8913" cy="54.7151" rx="3.45652" ry="3.21853" fill="#7F636E" fill-opacity="0.5"/>
<ellipse cx="21.8913" cy="89.0461" rx="3.45652" ry="3.21853" fill="#7F636E" fill-opacity="0.5"/>
<ellipse cx="40.326" cy="3.21853" rx="3.45652" ry="3.21853" fill="#7F636E" fill-opacity="0.5"/>
<ellipse cx="40.326" cy="20.384" rx="3.45652" ry="3.21853" fill="#7F636E" fill-opacity="0.5"/>
<ellipse cx="40.326" cy="37.5495" rx="3.45652" ry="3.21853" fill="#7F636E" fill-opacity="0.5"/>
<ellipse cx="40.326" cy="71.8806" rx="3.45652" ry="3.21853" fill="#7F636E" fill-opacity="0.5"/>
<ellipse cx="40.326" cy="54.7151" rx="3.45652" ry="3.21853" fill="#7F636E" fill-opacity="0.5"/>
<ellipse cx="40.326" cy="89.0461" rx="3.45652" ry="3.21853" fill="#7F636E" fill-opacity="0.5"/>
<ellipse cx="58.7608" cy="3.21853" rx="3.45652" ry="3.21853" fill="#7F636E" fill-opacity="0.5"/>
<ellipse cx="95.6303" cy="3.21853" rx="3.45652" ry="3.21853" fill="#7F636E" fill-opacity="0.5"/>
<ellipse cx="77.1956" cy="3.21853" rx="3.45652" ry="3.21853" fill="#7F636E" fill-opacity="0.5"/>
<ellipse cx="58.7608" cy="20.384" rx="3.45652" ry="3.21853" fill="#7F636E" fill-opacity="0.5"/>
<ellipse cx="95.6303" cy="20.384" rx="3.45652" ry="3.21853" fill="#7F636E" fill-opacity="0.5"/>
<ellipse cx="77.1956" cy="20.384" rx="3.45652" ry="3.21853" fill="#7F636E" fill-opacity="0.5"/>
<ellipse cx="58.7608" cy="37.5495" rx="3.45652" ry="3.21853" fill="#7F636E" fill-opacity="0.5"/>
<ellipse cx="58.7608" cy="71.8806" rx="3.45652" ry="3.21853" fill="#7F636E" fill-opacity="0.5"/>
<ellipse cx="95.6303" cy="37.5495" rx="3.45652" ry="3.21853" fill="#7F636E" fill-opacity="0.5"/>
<ellipse cx="95.6303" cy="71.8806" rx="3.45652" ry="3.21853" fill="#7F636E" fill-opacity="0.5"/>
<ellipse cx="77.1956" cy="37.5495" rx="3.45652" ry="3.21853" fill="#7F636E" fill-opacity="0.5"/>
<ellipse cx="77.1956" cy="71.8806" rx="3.45652" ry="3.21853" fill="#7F636E" fill-opacity="0.5"/>
<ellipse cx="58.7608" cy="54.7151" rx="3.45652" ry="3.21853" fill="#7F636E" fill-opacity="0.5"/>
<ellipse cx="58.7608" cy="89.0461" rx="3.45652" ry="3.21853" fill="#7F636E" fill-opacity="0.5"/>
<ellipse cx="95.6303" cy="54.7151" rx="3.45652" ry="3.21853" fill="#7F636E" fill-opacity="0.5"/>
<ellipse cx="95.6303" cy="89.0461" rx="3.45652" ry="3.21853" fill="#7F636E" fill-opacity="0.5"/>
<ellipse cx="77.1956" cy="54.7151" rx="3.45652" ry="3.21853" fill="#7F636E" fill-opacity="0.5"/>
<ellipse cx="77.1956" cy="89.0461" rx="3.45652" ry="3.21853" fill="#7F636E" fill-opacity="0.5"/>
<ellipse cx="116.37" cy="3.21853" rx="3.45652" ry="3.21853" fill="#7F636E" fill-opacity="0.5"/>
<ellipse cx="116.37" cy="20.384" rx="3.45652" ry="3.21853" fill="#7F636E" fill-opacity="0.5"/>
<ellipse cx="116.37" cy="37.5495" rx="3.45652" ry="3.21853" fill="#7F636E" fill-opacity="0.5"/>
<ellipse cx="116.37" cy="71.8806" rx="3.45652" ry="3.21853" fill="#7F636E" fill-opacity="0.5"/>
<ellipse cx="116.37" cy="54.7151" rx="3.45652" ry="3.21853" fill="#7F636E" fill-opacity="0.5"/>
<ellipse cx="116.37" cy="89.0461" rx="3.45652" ry="3.21853" fill="#7F636E" fill-opacity="0.5"/>
<ellipse cx="134.804" cy="3.21853" rx="3.45652" ry="3.21853" fill="#7F636E" fill-opacity="0.5"/>
<ellipse cx="134.804" cy="20.384" rx="3.45652" ry="3.21853" fill="#7F636E" fill-opacity="0.5"/>
<ellipse cx="134.804" cy="37.5495" rx="3.45652" ry="3.21853" fill="#7F636E" fill-opacity="0.5"/>
<ellipse cx="134.804" cy="71.8806" rx="3.45652" ry="3.21853" fill="#7F636E" fill-opacity="0.5"/>
<ellipse cx="134.804" cy="54.7151" rx="3.45652" ry="3.21853" fill="#7F636E" fill-opacity="0.5"/>
<ellipse cx="134.804" cy="89.0461" rx="3.45652" ry="3.21853" fill="#7F636E" fill-opacity="0.5"/>
<ellipse cx="153.239" cy="3.21853" rx="3.45652" ry="3.21853" fill="#7F636E" fill-opacity="0.5"/>
<ellipse cx="153.239" cy="20.384" rx="3.45652" ry="3.21853" fill="#7F636E" fill-opacity="0.5"/>
<ellipse cx="153.239" cy="37.5495" rx="3.45652" ry="3.21853" fill="#7F636E" fill-opacity="0.5"/>
<ellipse cx="153.239" cy="71.8806" rx="3.45652" ry="3.21853" fill="#7F636E" fill-opacity="0.5"/>
<ellipse cx="153.239" cy="54.7151" rx="3.45652" ry="3.21853" fill="#7F636E" fill-opacity="0.5"/>
<ellipse cx="153.239" cy="89.0461" rx="3.45652" ry="3.21853" fill="#7F636E" fill-opacity="0.5"/>
<ellipse cx="171.674" cy="3.21853" rx="3.45652" ry="3.21853" fill="#7F636E" fill-opacity="0.5"/>
<ellipse cx="208.543" cy="3.21853" rx="3.45652" ry="3.21853" fill="#7F636E" fill-opacity="0.5"/>
<ellipse cx="190.109" cy="3.21853" rx="3.45652" ry="3.21853" fill="#7F636E" fill-opacity="0.5"/>
<ellipse cx="171.674" cy="20.384" rx="3.45652" ry="3.21853" fill="#7F636E" fill-opacity="0.5"/>
<ellipse cx="208.543" cy="20.384" rx="3.45652" ry="3.21853" fill="#7F636E" fill-opacity="0.5"/>
<ellipse cx="190.109" cy="20.384" rx="3.45652" ry="3.21853" fill="#7F636E" fill-opacity="0.5"/>
<ellipse cx="171.674" cy="37.5495" rx="3.45652" ry="3.21853" fill="#7F636E" fill-opacity="0.5"/>
<ellipse cx="171.674" cy="71.8806" rx="3.45652" ry="3.21853" fill="#7F636E" fill-opacity="0.5"/>
<ellipse cx="208.543" cy="37.5495" rx="3.45652" ry="3.21853" fill="#7F636E" fill-opacity="0.5"/>
<ellipse cx="208.543" cy="71.8806" rx="3.45652" ry="3.21853" fill="#7F636E" fill-opacity="0.5"/>
<ellipse cx="190.109" cy="37.5495" rx="3.45652" ry="3.21853" fill="#7F636E" fill-opacity="0.5"/>
<ellipse cx="190.109" cy="71.8806" rx="3.45652" ry="3.21853" fill="#7F636E" fill-opacity="0.5"/>
<ellipse cx="171.674" cy="54.7151" rx="3.45652" ry="3.21853" fill="#7F636E" fill-opacity="0.5"/>
<ellipse cx="171.674" cy="89.0461" rx="3.45652" ry="3.21853" fill="#7F636E" fill-opacity="0.5"/>
<ellipse cx="208.543" cy="54.7151" rx="3.45652" ry="3.21853" fill="#7F636E" fill-opacity="0.5"/>
<ellipse cx="208.543" cy="89.0461" rx="3.45652" ry="3.21853" fill="#7F636E" fill-opacity="0.5"/>
<ellipse cx="190.109" cy="54.7151" rx="3.45652" ry="3.21853" fill="#7F636E" fill-opacity="0.5"/>
<ellipse cx="190.109" cy="89.0461" rx="3.45652" ry="3.21853" fill="#7F636E" fill-opacity="0.5"/>
<ellipse cx="116.37" cy="108.358" rx="3.45652" ry="3.21853" fill="#7F636E" fill-opacity="0.5"/>
<ellipse cx="116.37" cy="125.523" rx="3.45652" ry="3.21853" fill="#7F636E" fill-opacity="0.5"/>
<ellipse cx="116.37" cy="142.688" rx="3.45652" ry="3.21853" fill="#7F636E" fill-opacity="0.5"/>
<ellipse cx="116.37" cy="177.019" rx="3.45652" ry="3.21853" fill="#7F636E" fill-opacity="0.5"/>
<ellipse cx="116.37" cy="159.854" rx="3.45652" ry="3.21853" fill="#7F636E" fill-opacity="0.5"/>
<ellipse cx="116.37" cy="194.185" rx="3.45652" ry="3.21853" fill="#7F636E" fill-opacity="0.5"/>
<ellipse cx="134.804" cy="108.357" rx="3.45652" ry="3.21853" fill="#7F636E" fill-opacity="0.5"/>
<ellipse cx="134.804" cy="125.523" rx="3.45652" ry="3.21853" fill="#7F636E" fill-opacity="0.5"/>
<ellipse cx="134.804" cy="142.688" rx="3.45652" ry="3.21853" fill="#7F636E" fill-opacity="0.5"/>
<ellipse cx="134.804" cy="177.019" rx="3.45652" ry="3.21853" fill="#7F636E" fill-opacity="0.5"/>
<ellipse cx="134.804" cy="159.854" rx="3.45652" ry="3.21853" fill="#7F636E" fill-opacity="0.5"/>
<ellipse cx="134.804" cy="194.185" rx="3.45652" ry="3.21853" fill="#7F636E" fill-opacity="0.5"/>
<ellipse cx="153.239" cy="108.357" rx="3.45652" ry="3.21853" fill="#7F636E" fill-opacity="0.5"/>
<ellipse cx="153.239" cy="125.523" rx="3.45652" ry="3.21853" fill="#7F636E" fill-opacity="0.5"/>
<ellipse cx="153.239" cy="142.688" rx="3.45652" ry="3.21853" fill="#7F636E" fill-opacity="0.5"/>
<ellipse cx="153.239" cy="177.019" rx="3.45652" ry="3.21853" fill="#7F636E" fill-opacity="0.5"/>
<ellipse cx="153.239" cy="159.854" rx="3.45652" ry="3.21853" fill="#7F636E" fill-opacity="0.5"/>
<ellipse cx="153.239" cy="194.185" rx="3.45652" ry="3.21853" fill="#7F636E" fill-opacity="0.5"/>
<ellipse cx="171.674" cy="108.357" rx="3.45652" ry="3.21853" fill="#7F636E" fill-opacity="0.5"/>
<ellipse cx="208.543" cy="108.357" rx="3.45652" ry="3.21853" fill="#7F636E" fill-opacity="0.5"/>
<ellipse cx="190.109" cy="108.357" rx="3.45652" ry="3.21853" fill="#7F636E" fill-opacity="0.5"/>
<ellipse cx="171.674" cy="125.523" rx="3.45652" ry="3.21853" fill="#7F636E" fill-opacity="0.5"/>
<ellipse cx="208.543" cy="125.523" rx="3.45652" ry="3.21853" fill="#7F636E" fill-opacity="0.5"/>
<ellipse cx="190.109" cy="125.523" rx="3.45652" ry="3.21853" fill="#7F636E" fill-opacity="0.5"/>
<ellipse cx="171.674" cy="142.688" rx="3.45652" ry="3.21853" fill="#7F636E" fill-opacity="0.5"/>
<ellipse cx="171.674" cy="177.019" rx="3.45652" ry="3.21853" fill="#7F636E" fill-opacity="0.5"/>
<ellipse cx="208.543" cy="142.688" rx="3.45652" ry="3.21853" fill="#7F636E" fill-opacity="0.5"/>
<ellipse cx="208.543" cy="177.019" rx="3.45652" ry="3.21853" fill="#7F636E" fill-opacity="0.5"/>
<ellipse cx="190.109" cy="142.688" rx="3.45652" ry="3.21853" fill="#7F636E" fill-opacity="0.5"/>
<ellipse cx="190.109" cy="177.019" rx="3.45652" ry="3.21853" fill="#7F636E" fill-opacity="0.5"/>
<ellipse cx="171.674" cy="159.854" rx="3.45652" ry="3.21853" fill="#7F636E" fill-opacity="0.5"/>
<ellipse cx="171.674" cy="194.185" rx="3.45652" ry="3.21853" fill="#7F636E" fill-opacity="0.5"/>
<ellipse cx="208.543" cy="159.854" rx="3.45652" ry="3.21853" fill="#7F636E" fill-opacity="0.5"/>
<ellipse cx="208.543" cy="194.185" rx="3.45652" ry="3.21853" fill="#7F636E" fill-opacity="0.5"/>
<ellipse cx="190.109" cy="159.854" rx="3.45652" ry="3.21853" fill="#7F636E" fill-opacity="0.5"/>
<ellipse cx="190.109" cy="194.185" rx="3.45652" ry="3.21853" fill="#7F636E" fill-opacity="0.5"/>
<ellipse cx="3.45652" cy="108.358" rx="3.45652" ry="3.21853" fill="#7F636E" fill-opacity="0.5"/>
<ellipse cx="3.45652" cy="125.523" rx="3.45652" ry="3.21853" fill="#7F636E" fill-opacity="0.5"/>
<ellipse cx="3.45652" cy="142.688" rx="3.45652" ry="3.21853" fill="#7F636E" fill-opacity="0.5"/>
<ellipse cx="3.45652" cy="177.019" rx="3.45652" ry="3.21853" fill="#7F636E" fill-opacity="0.5"/>
<ellipse cx="3.45652" cy="159.854" rx="3.45652" ry="3.21853" fill="#7F636E" fill-opacity="0.5"/>
<ellipse cx="3.45652" cy="194.185" rx="3.45652" ry="3.21853" fill="#7F636E" fill-opacity="0.5"/>
<ellipse cx="21.8913" cy="108.357" rx="3.45652" ry="3.21853" fill="#7F636E" fill-opacity="0.5"/>
<ellipse cx="21.8913" cy="125.523" rx="3.45652" ry="3.21853" fill="#7F636E" fill-opacity="0.5"/>
<ellipse cx="21.8913" cy="142.688" rx="3.45652" ry="3.21853" fill="#7F636E" fill-opacity="0.5"/>
<ellipse cx="21.8913" cy="177.019" rx="3.45652" ry="3.21853" fill="#7F636E" fill-opacity="0.5"/>
<ellipse cx="21.8913" cy="159.854" rx="3.45652" ry="3.21853" fill="#7F636E" fill-opacity="0.5"/>
<ellipse cx="21.8913" cy="194.185" rx="3.45652" ry="3.21853" fill="#7F636E" fill-opacity="0.5"/>
<ellipse cx="40.326" cy="108.357" rx="3.45652" ry="3.21853" fill="#7F636E" fill-opacity="0.5"/>
<ellipse cx="40.326" cy="125.523" rx="3.45652" ry="3.21853" fill="#7F636E" fill-opacity="0.5"/>
<ellipse cx="40.326" cy="142.688" rx="3.45652" ry="3.21853" fill="#7F636E" fill-opacity="0.5"/>
<ellipse cx="40.326" cy="177.019" rx="3.45652" ry="3.21853" fill="#7F636E" fill-opacity="0.5"/>
<ellipse cx="40.326" cy="159.854" rx="3.45652" ry="3.21853" fill="#7F636E" fill-opacity="0.5"/>
<ellipse cx="40.326" cy="194.185" rx="3.45652" ry="3.21853" fill="#7F636E" fill-opacity="0.5"/>
<ellipse cx="58.7608" cy="108.357" rx="3.45652" ry="3.21853" fill="#7F636E" fill-opacity="0.5"/>
<ellipse cx="95.6303" cy="108.357" rx="3.45652" ry="3.21853" fill="#7F636E" fill-opacity="0.5"/>
<ellipse cx="77.1956" cy="108.357" rx="3.45652" ry="3.21853" fill="#7F636E" fill-opacity="0.5"/>
<ellipse cx="58.7608" cy="125.523" rx="3.45652" ry="3.21853" fill="#7F636E" fill-opacity="0.5"/>
<ellipse cx="95.6303" cy="125.523" rx="3.45652" ry="3.21853" fill="#7F636E" fill-opacity="0.5"/>
<ellipse cx="77.1956" cy="125.523" rx="3.45652" ry="3.21853" fill="#7F636E" fill-opacity="0.5"/>
<ellipse cx="58.7608" cy="142.688" rx="3.45652" ry="3.21853" fill="#7F636E" fill-opacity="0.5"/>
<ellipse cx="58.7608" cy="177.019" rx="3.45652" ry="3.21853" fill="#7F636E" fill-opacity="0.5"/>
<ellipse cx="95.6303" cy="142.688" rx="3.45652" ry="3.21853" fill="#7F636E" fill-opacity="0.5"/>
<ellipse cx="95.6303" cy="177.019" rx="3.45652" ry="3.21853" fill="#7F636E" fill-opacity="0.5"/>
<ellipse cx="77.1956" cy="142.688" rx="3.45652" ry="3.21853" fill="#7F636E" fill-opacity="0.5"/>
<ellipse cx="77.1956" cy="177.019" rx="3.45652" ry="3.21853" fill="#7F636E" fill-opacity="0.5"/>
<ellipse cx="58.7608" cy="159.854" rx="3.45652" ry="3.21853" fill="#7F636E" fill-opacity="0.5"/>
<ellipse cx="58.7608" cy="194.185" rx="3.45652" ry="3.21853" fill="#7F636E" fill-opacity="0.5"/>
<ellipse cx="95.6303" cy="159.854" rx="3.45652" ry="3.21853" fill="#7F636E" fill-opacity="0.5"/>
<ellipse cx="95.6303" cy="194.185" rx="3.45652" ry="3.21853" fill="#7F636E" fill-opacity="0.5"/>
<ellipse cx="77.1956" cy="159.854" rx="3.45652" ry="3.21853" fill="#7F636E" fill-opacity="0.5"/>
<ellipse cx="77.1956" cy="194.185" rx="3.45652" ry="3.21853" fill="#7F636E" fill-opacity="0.5"/>
</svg>
