<svg width="21" height="21" viewBox="0 0 21 21" fill="none" xmlns="http://www.w3.org/2000/svg">
<path d="M10.5269 16.3333C10.8553 16.3339 11.1806 16.2695 11.484 16.144C11.7875 16.0184 12.0632 15.8341 12.2952 15.6017L15.561 12.3333L14.3827 11.1583L11.3552 14.1867L11.3335 0.5H9.66686L9.68853 14.1733L6.67186 11.1567L5.49353 12.3333L8.75936 15.5992C8.9911 15.8319 9.26654 16.0166 9.56986 16.1426C9.87319 16.2686 10.1984 16.3334 10.5269 16.3333V16.3333Z" fill="white"/>
<path d="M18.8333 13.8336V18.0002C18.8333 18.2213 18.7455 18.4332 18.5893 18.5895C18.433 18.7458 18.221 18.8336 18 18.8336H3C2.77899 18.8336 2.56702 18.7458 2.41074 18.5895C2.25446 18.4332 2.16667 18.2213 2.16667 18.0002V13.8336H0.5V18.0002C0.5 18.6633 0.763392 19.2992 1.23223 19.768C1.70107 20.2369 2.33696 20.5002 3 20.5002H18C18.663 20.5002 19.2989 20.2369 19.7678 19.768C20.2366 19.2992 20.5 18.6633 20.5 18.0002V13.8336H18.8333Z" fill="white"/>
</svg>
