<svg width="133" height="54" viewBox="0 0 133 54" fill="none" xmlns="http://www.w3.org/2000/svg">
<path d="M4.312 17.424C2.2 15.648 1.384 14.64 1.384 13.584C1.384 13.008 1.672 12.384 2.104 11.568C5.176 7.392 12.904 6.144 20.392 5.52C22.36 5.328 24.28 5.184 27.112 5.04C26.968 6.192 26.776 7.584 26.536 9.072C26.008 13.152 25.576 18.336 25.192 23.568C24.856 28.752 24.52 35.424 24.472 39.552C24.472 40.368 24.424 41.184 24.424 41.904C24.424 42.96 24.472 43.92 24.52 44.736C24.568 45.936 24.616 47.04 24.952 47.568C24.952 47.616 25 47.664 24.952 47.712C25.192 48.096 25.816 48.48 26.2 48.528C26.488 48.528 26.776 48.432 26.632 48.192L26.536 47.904C26.488 47.808 26.344 47.232 26.344 45.504C26.296 44.544 26.248 43.392 26.248 42V40.416C26.296 36.288 26.632 29.616 26.968 24.432C27.304 19.2 27.784 14.016 28.312 9.936C28.552 7.968 28.84 6.288 29.176 4.944H29.704C31.048 4.896 32.488 4.896 33.928 4.896C36.136 4.896 38.44 4.944 40.696 4.944C45.4 4.944 49.96 4.848 53.416 4.368C55.528 4.128 57.736 2.016 54.76 2.448C50.344 3.072 45.88 3.216 41.464 3.216C38.296 3.216 35.176 3.168 32.056 3.168H29.656C29.8 2.784 29.896 2.496 30.04 2.304C30.232 2.112 30.04 1.632 29.608 1.344C29.08 0.959999 28.696 0.912 28.408 1.056C28.072 1.44 27.88 2.208 27.64 3.216C24.616 3.312 21.928 3.504 19.288 3.792C11.848 4.368 4.024 6.048 0.904 10.656C0.423999 11.376 0.183999 12.336 0.183999 13.248C0.183999 15.216 1.144 17.184 2.68 17.568C3.592 17.808 4.264 17.808 4.312 17.424ZM50.9399 29.184C52.0919 28.8 52.4279 28.176 51.0359 28.224C50.6039 28.224 48.7319 28.416 46.4759 28.416C45.3719 28.416 44.1239 28.368 42.9239 28.224C42.2039 27.36 41.1479 26.736 39.8519 26.544C38.8919 26.496 38.5559 27.024 38.3639 27.696C38.2679 27.696 38.2199 27.744 38.1239 27.744C37.0199 28.128 35.7719 30.432 36.1079 32.448C36.3479 33.792 37.5479 35.28 39.3239 35.376C41.5319 35.52 43.4999 34.32 43.9319 31.92C44.0759 31.2 44.0279 30.48 43.8359 29.856C46.7639 30 49.8839 29.568 50.9399 29.184ZM39.0839 28.8L39.1799 28.704C39.8519 29.136 40.7639 29.424 41.8679 29.616C42.6359 31.344 41.5799 34.08 39.4679 34.176C38.5559 34.224 38.0279 33.696 37.7879 32.304C37.5479 30.96 38.4599 29.28 39.0839 28.8ZM51.0344 35.088C51.7544 35.376 52.9064 35.52 54.1064 35.52C55.3544 35.52 56.6024 35.376 57.4664 35.136C58.7144 34.8 59.6264 33.456 58.5704 32.544C57.6104 31.776 56.1704 31.056 54.3464 30.048C53.3864 29.472 52.2824 28.992 52.5704 28.32C53.0984 27.072 57.4664 26.256 59.2424 25.632C59.6264 25.152 58.6664 24.24 57.8984 24.336C55.4504 24.672 50.2184 26.208 50.6024 28.752C50.7944 30.192 52.1384 30.672 53.3864 31.392C54.3464 31.92 56.1704 32.832 57.3704 33.456C56.1224 33.744 54.2024 33.984 52.6664 33.984C52.0424 33.984 51.5144 33.936 51.0824 33.84C50.0264 33.6 50.4584 34.8 51.0344 35.088ZM62.9976 33.888C63.9096 34.896 65.2056 35.184 66.4056 35.136C69.7176 34.992 74.0856 31.2 74.9976 29.52C75.5736 28.464 75.0936 28.176 74.9016 28.368C73.4616 29.808 68.3736 33.648 65.3976 33.648C64.8696 33.648 64.3896 33.504 64.0056 33.216C63.2856 32.592 64.2456 27.168 64.6296 26.784C64.6776 26.544 64.3896 26.16 63.8616 25.968C63.2856 25.824 62.8056 25.872 62.7576 26.112C62.2296 26.928 61.9416 28.416 61.9416 29.904C61.9416 31.488 62.2776 33.12 62.9976 33.888ZM64.0056 22.752C64.4376 22.992 65.0136 22.992 65.1576 22.8C65.3016 22.56 65.6856 21.504 65.7816 21.264C65.9256 20.976 65.9256 20.64 65.9256 20.448C66.0216 20.208 65.6376 19.824 65.0136 19.68C64.5336 19.488 64.0056 19.584 64.0056 19.872L63.9096 20.592C63.8136 20.832 63.4776 21.792 63.3816 21.936C63.1416 22.128 63.4296 22.56 64.0056 22.752ZM73.9517 33.696C73.9997 34.464 75.6798 34.896 75.6318 34.272L75.6798 33.168C76.5918 31.152 80.2398 28.848 83.7918 28.464C83.6958 29.04 83.6478 29.568 83.6478 30.096C83.6478 30.96 83.7918 31.776 84.2718 32.496C85.1358 33.744 86.6718 34.32 88.0638 34.32C91.4238 34.32 94.5438 31.776 95.6958 30.288C96.4158 29.376 96.2238 28.32 96.0318 28.416C94.4958 29.184 90.3198 32.976 87.3438 32.976C86.7198 32.976 86.1918 32.832 85.7118 32.448C85.0878 31.536 85.6158 29.712 85.6158 28.896C85.6158 28.176 84.7518 27.312 83.8398 27.216C81.1518 26.928 77.6958 28.656 76.0638 29.856L76.1598 28.224C76.2078 27.936 75.7758 27.504 75.3918 27.264C74.9117 27.072 74.4317 27.12 74.4317 27.456L73.9517 32.256C73.8557 32.832 73.9037 33.312 73.9517 33.696ZM128.071 6.672C128.455 6.672 128.455 6.336 128.263 5.904C127.927 5.52 127.447 5.472 127.015 5.472C123.175 5.712 119.575 5.952 115.927 6.24L115.783 5.712C115.351 5.184 115.015 5.136 114.775 5.472V6.336C107.527 6.912 100.135 7.824 90.9666 9.456C90.5826 9.504 90.6786 9.888 90.8706 10.272C91.2546 10.656 91.8306 10.944 92.2146 10.848C100.183 9.408 107.431 8.448 114.871 7.728C114.919 9.696 114.967 12.432 114.967 15.408C114.967 20.112 114.823 25.488 114.343 29.712C107.239 30.864 95.3826 35.712 91.2546 40.56C90.0546 41.904 89.4786 43.584 89.4786 45.216C89.4786 46.512 89.8626 47.76 90.6306 48.864C92.8866 51.6 96.1986 52.848 99.7506 53.088C110.503 53.808 114.679 40.176 116.071 31.2C121.159 30.336 123.607 30 126.631 29.76C127.015 29.76 127.351 29.712 127.111 29.328C125.863 28.848 124.471 28.656 122.983 28.656C120.967 28.656 118.711 28.992 116.359 29.376C116.599 25.968 116.743 22.944 116.743 20.064C116.743 16.128 116.551 12.432 116.311 8.496L116.215 7.632C120.103 7.248 123.991 6.96 128.071 6.672ZM99.1266 51.696C96.4866 51.456 93.2706 50.16 91.7826 48.384C90.9666 47.424 90.5826 46.464 90.5826 45.504C90.5826 39.072 107.239 33.264 112.903 31.92L114.199 31.632C112.615 40.416 108.727 52.416 99.1266 51.696ZM130.164 34.464C130.5 34.896 131.172 34.896 131.7 34.464C132.228 34.032 132.372 33.312 132.036 32.88C131.7 32.448 131.028 32.448 130.5 32.88C129.972 33.312 129.828 34.032 130.164 34.464Z" fill="#7F636E"/>
</svg>
