<svg width="213" height="198" viewBox="0 0 213 198" fill="none" xmlns="http://www.w3.org/2000/svg">
<ellipse cx="3.45652" cy="3.21853" rx="3.45652" ry="3.21853" fill="white" fill-opacity="0.3"/>
<ellipse cx="3.45652" cy="20.3841" rx="3.45652" ry="3.21853" fill="white" fill-opacity="0.3"/>
<ellipse cx="3.45652" cy="37.5495" rx="3.45652" ry="3.21853" fill="white" fill-opacity="0.3"/>
<ellipse cx="3.45652" cy="71.8806" rx="3.45652" ry="3.21853" fill="white" fill-opacity="0.3"/>
<ellipse cx="3.45652" cy="54.7151" rx="3.45652" ry="3.21853" fill="white" fill-opacity="0.3"/>
<ellipse cx="3.45652" cy="89.0461" rx="3.45652" ry="3.21853" fill="white" fill-opacity="0.3"/>
<ellipse cx="21.8913" cy="3.21853" rx="3.45652" ry="3.21853" fill="white" fill-opacity="0.3"/>
<ellipse cx="21.8913" cy="20.3841" rx="3.45652" ry="3.21853" fill="white" fill-opacity="0.3"/>
<ellipse cx="21.8913" cy="37.5495" rx="3.45652" ry="3.21853" fill="white" fill-opacity="0.3"/>
<ellipse cx="21.8913" cy="71.8806" rx="3.45652" ry="3.21853" fill="white" fill-opacity="0.3"/>
<ellipse cx="21.8913" cy="54.7151" rx="3.45652" ry="3.21853" fill="white" fill-opacity="0.3"/>
<ellipse cx="21.8913" cy="89.0461" rx="3.45652" ry="3.21853" fill="white" fill-opacity="0.3"/>
<ellipse cx="40.326" cy="3.21853" rx="3.45652" ry="3.21853" fill="white" fill-opacity="0.3"/>
<ellipse cx="40.326" cy="20.3841" rx="3.45652" ry="3.21853" fill="white" fill-opacity="0.3"/>
<ellipse cx="40.326" cy="37.5495" rx="3.45652" ry="3.21853" fill="white" fill-opacity="0.3"/>
<ellipse cx="40.326" cy="71.8806" rx="3.45652" ry="3.21853" fill="white" fill-opacity="0.3"/>
<ellipse cx="40.326" cy="54.7151" rx="3.45652" ry="3.21853" fill="white" fill-opacity="0.3"/>
<ellipse cx="40.326" cy="89.0461" rx="3.45652" ry="3.21853" fill="white" fill-opacity="0.3"/>
<ellipse cx="58.7608" cy="3.21853" rx="3.45652" ry="3.21853" fill="white" fill-opacity="0.3"/>
<ellipse cx="95.6303" cy="3.21853" rx="3.45652" ry="3.21853" fill="white" fill-opacity="0.3"/>
<ellipse cx="77.1956" cy="3.21853" rx="3.45652" ry="3.21853" fill="white" fill-opacity="0.3"/>
<ellipse cx="58.7608" cy="20.3841" rx="3.45652" ry="3.21853" fill="white" fill-opacity="0.3"/>
<ellipse cx="95.6303" cy="20.3841" rx="3.45652" ry="3.21853" fill="white" fill-opacity="0.3"/>
<ellipse cx="77.1956" cy="20.3841" rx="3.45652" ry="3.21853" fill="white" fill-opacity="0.3"/>
<ellipse cx="58.7608" cy="37.5495" rx="3.45652" ry="3.21853" fill="white" fill-opacity="0.3"/>
<ellipse cx="58.7608" cy="71.8806" rx="3.45652" ry="3.21853" fill="white" fill-opacity="0.3"/>
<ellipse cx="95.6303" cy="37.5495" rx="3.45652" ry="3.21853" fill="white" fill-opacity="0.3"/>
<ellipse cx="95.6303" cy="71.8806" rx="3.45652" ry="3.21853" fill="white" fill-opacity="0.3"/>
<ellipse cx="77.1956" cy="37.5495" rx="3.45652" ry="3.21853" fill="white" fill-opacity="0.3"/>
<ellipse cx="77.1956" cy="71.8806" rx="3.45652" ry="3.21853" fill="white" fill-opacity="0.3"/>
<ellipse cx="58.7608" cy="54.7151" rx="3.45652" ry="3.21853" fill="white" fill-opacity="0.3"/>
<ellipse cx="58.7608" cy="89.0461" rx="3.45652" ry="3.21853" fill="white" fill-opacity="0.3"/>
<ellipse cx="95.6303" cy="54.7151" rx="3.45652" ry="3.21853" fill="white" fill-opacity="0.3"/>
<ellipse cx="95.6303" cy="89.0461" rx="3.45652" ry="3.21853" fill="white" fill-opacity="0.3"/>
<ellipse cx="77.1956" cy="54.7151" rx="3.45652" ry="3.21853" fill="white" fill-opacity="0.3"/>
<ellipse cx="77.1956" cy="89.0461" rx="3.45652" ry="3.21853" fill="white" fill-opacity="0.3"/>
<ellipse cx="116.543" cy="3.21853" rx="3.45652" ry="3.21853" fill="white" fill-opacity="0.3"/>
<ellipse cx="116.543" cy="20.3841" rx="3.45652" ry="3.21853" fill="white" fill-opacity="0.3"/>
<ellipse cx="116.543" cy="37.5495" rx="3.45652" ry="3.21853" fill="white" fill-opacity="0.3"/>
<ellipse cx="116.543" cy="71.8806" rx="3.45652" ry="3.21853" fill="white" fill-opacity="0.3"/>
<ellipse cx="116.543" cy="54.7151" rx="3.45652" ry="3.21853" fill="white" fill-opacity="0.3"/>
<ellipse cx="116.543" cy="89.0461" rx="3.45652" ry="3.21853" fill="white" fill-opacity="0.3"/>
<ellipse cx="134.978" cy="3.21853" rx="3.45652" ry="3.21853" fill="white" fill-opacity="0.3"/>
<ellipse cx="134.978" cy="20.3841" rx="3.45652" ry="3.21853" fill="white" fill-opacity="0.3"/>
<ellipse cx="134.978" cy="37.5495" rx="3.45652" ry="3.21853" fill="white" fill-opacity="0.3"/>
<ellipse cx="134.978" cy="71.8806" rx="3.45652" ry="3.21853" fill="white" fill-opacity="0.3"/>
<ellipse cx="134.978" cy="54.7151" rx="3.45652" ry="3.21853" fill="white" fill-opacity="0.3"/>
<ellipse cx="134.978" cy="89.0461" rx="3.45652" ry="3.21853" fill="white" fill-opacity="0.3"/>
<ellipse cx="153.413" cy="3.21853" rx="3.45652" ry="3.21853" fill="white" fill-opacity="0.3"/>
<ellipse cx="153.413" cy="20.3841" rx="3.45652" ry="3.21853" fill="white" fill-opacity="0.3"/>
<ellipse cx="153.413" cy="37.5495" rx="3.45652" ry="3.21853" fill="white" fill-opacity="0.3"/>
<ellipse cx="153.413" cy="71.8806" rx="3.45652" ry="3.21853" fill="white" fill-opacity="0.3"/>
<ellipse cx="153.413" cy="54.7151" rx="3.45652" ry="3.21853" fill="white" fill-opacity="0.3"/>
<ellipse cx="153.413" cy="89.0461" rx="3.45652" ry="3.21853" fill="white" fill-opacity="0.3"/>
<ellipse cx="171.848" cy="3.21853" rx="3.45652" ry="3.21853" fill="white" fill-opacity="0.3"/>
<ellipse cx="208.717" cy="3.21853" rx="3.45652" ry="3.21853" fill="white" fill-opacity="0.3"/>
<ellipse cx="190.282" cy="3.21853" rx="3.45652" ry="3.21853" fill="white" fill-opacity="0.3"/>
<ellipse cx="171.848" cy="20.3841" rx="3.45652" ry="3.21853" fill="white" fill-opacity="0.3"/>
<ellipse cx="208.717" cy="20.3841" rx="3.45652" ry="3.21853" fill="white" fill-opacity="0.3"/>
<ellipse cx="190.282" cy="20.3841" rx="3.45652" ry="3.21853" fill="white" fill-opacity="0.3"/>
<ellipse cx="171.848" cy="37.5495" rx="3.45652" ry="3.21853" fill="white" fill-opacity="0.3"/>
<ellipse cx="171.848" cy="71.8806" rx="3.45652" ry="3.21853" fill="white" fill-opacity="0.3"/>
<ellipse cx="208.717" cy="37.5495" rx="3.45652" ry="3.21853" fill="white" fill-opacity="0.3"/>
<ellipse cx="208.717" cy="71.8806" rx="3.45652" ry="3.21853" fill="white" fill-opacity="0.3"/>
<ellipse cx="190.282" cy="37.5495" rx="3.45652" ry="3.21853" fill="white" fill-opacity="0.3"/>
<ellipse cx="190.282" cy="71.8806" rx="3.45652" ry="3.21853" fill="white" fill-opacity="0.3"/>
<ellipse cx="171.848" cy="54.7151" rx="3.45652" ry="3.21853" fill="white" fill-opacity="0.3"/>
<ellipse cx="171.848" cy="89.0461" rx="3.45652" ry="3.21853" fill="white" fill-opacity="0.3"/>
<ellipse cx="208.717" cy="54.7151" rx="3.45652" ry="3.21853" fill="white" fill-opacity="0.3"/>
<ellipse cx="208.717" cy="89.0461" rx="3.45652" ry="3.21853" fill="white" fill-opacity="0.3"/>
<ellipse cx="190.282" cy="54.7151" rx="3.45652" ry="3.21853" fill="white" fill-opacity="0.3"/>
<ellipse cx="190.282" cy="89.0461" rx="3.45652" ry="3.21853" fill="white" fill-opacity="0.3"/>
<ellipse cx="116.543" cy="108.484" rx="3.45652" ry="3.21853" fill="white" fill-opacity="0.3"/>
<ellipse cx="116.543" cy="125.649" rx="3.45652" ry="3.21853" fill="white" fill-opacity="0.3"/>
<ellipse cx="116.543" cy="142.814" rx="3.45652" ry="3.21853" fill="white" fill-opacity="0.3"/>
<ellipse cx="116.543" cy="177.145" rx="3.45652" ry="3.21853" fill="white" fill-opacity="0.3"/>
<ellipse cx="116.543" cy="159.98" rx="3.45652" ry="3.21853" fill="white" fill-opacity="0.3"/>
<ellipse cx="116.543" cy="194.311" rx="3.45652" ry="3.21853" fill="white" fill-opacity="0.3"/>
<ellipse cx="134.978" cy="108.483" rx="3.45652" ry="3.21853" fill="white" fill-opacity="0.3"/>
<ellipse cx="134.978" cy="125.649" rx="3.45652" ry="3.21853" fill="white" fill-opacity="0.3"/>
<ellipse cx="134.978" cy="142.814" rx="3.45652" ry="3.21853" fill="white" fill-opacity="0.3"/>
<ellipse cx="134.978" cy="177.145" rx="3.45652" ry="3.21853" fill="white" fill-opacity="0.3"/>
<ellipse cx="134.978" cy="159.98" rx="3.45652" ry="3.21853" fill="white" fill-opacity="0.3"/>
<ellipse cx="134.978" cy="194.311" rx="3.45652" ry="3.21853" fill="white" fill-opacity="0.3"/>
<ellipse cx="153.413" cy="108.483" rx="3.45652" ry="3.21853" fill="white" fill-opacity="0.3"/>
<ellipse cx="153.413" cy="125.649" rx="3.45652" ry="3.21853" fill="white" fill-opacity="0.3"/>
<ellipse cx="153.413" cy="142.814" rx="3.45652" ry="3.21853" fill="white" fill-opacity="0.3"/>
<ellipse cx="153.413" cy="177.145" rx="3.45652" ry="3.21853" fill="white" fill-opacity="0.3"/>
<ellipse cx="153.413" cy="159.98" rx="3.45652" ry="3.21853" fill="white" fill-opacity="0.3"/>
<ellipse cx="153.413" cy="194.311" rx="3.45652" ry="3.21853" fill="white" fill-opacity="0.3"/>
<ellipse cx="171.848" cy="108.483" rx="3.45652" ry="3.21853" fill="white" fill-opacity="0.3"/>
<ellipse cx="208.717" cy="108.483" rx="3.45652" ry="3.21853" fill="white" fill-opacity="0.3"/>
<ellipse cx="190.282" cy="108.483" rx="3.45652" ry="3.21853" fill="white" fill-opacity="0.3"/>
<ellipse cx="171.848" cy="125.649" rx="3.45652" ry="3.21853" fill="white" fill-opacity="0.3"/>
<ellipse cx="208.717" cy="125.649" rx="3.45652" ry="3.21853" fill="white" fill-opacity="0.3"/>
<ellipse cx="190.282" cy="125.649" rx="3.45652" ry="3.21853" fill="white" fill-opacity="0.3"/>
<ellipse cx="171.848" cy="142.814" rx="3.45652" ry="3.21853" fill="white" fill-opacity="0.3"/>
<ellipse cx="171.848" cy="177.145" rx="3.45652" ry="3.21853" fill="white" fill-opacity="0.3"/>
<ellipse cx="208.717" cy="142.814" rx="3.45652" ry="3.21853" fill="white" fill-opacity="0.3"/>
<ellipse cx="208.717" cy="177.145" rx="3.45652" ry="3.21853" fill="white" fill-opacity="0.3"/>
<ellipse cx="190.282" cy="142.814" rx="3.45652" ry="3.21853" fill="white" fill-opacity="0.3"/>
<ellipse cx="190.282" cy="177.145" rx="3.45652" ry="3.21853" fill="white" fill-opacity="0.3"/>
<ellipse cx="171.848" cy="159.98" rx="3.45652" ry="3.21853" fill="white" fill-opacity="0.3"/>
<ellipse cx="171.848" cy="194.311" rx="3.45652" ry="3.21853" fill="white" fill-opacity="0.3"/>
<ellipse cx="208.717" cy="159.98" rx="3.45652" ry="3.21853" fill="white" fill-opacity="0.3"/>
<ellipse cx="208.717" cy="194.311" rx="3.45652" ry="3.21853" fill="white" fill-opacity="0.3"/>
<ellipse cx="190.282" cy="159.98" rx="3.45652" ry="3.21853" fill="white" fill-opacity="0.3"/>
<ellipse cx="190.282" cy="194.311" rx="3.45652" ry="3.21853" fill="white" fill-opacity="0.3"/>
<ellipse cx="3.45652" cy="108.484" rx="3.45652" ry="3.21853" fill="white" fill-opacity="0.3"/>
<ellipse cx="3.45652" cy="125.649" rx="3.45652" ry="3.21853" fill="white" fill-opacity="0.3"/>
<ellipse cx="3.45652" cy="142.814" rx="3.45652" ry="3.21853" fill="white" fill-opacity="0.3"/>
<ellipse cx="3.45652" cy="177.145" rx="3.45652" ry="3.21853" fill="white" fill-opacity="0.3"/>
<ellipse cx="3.45652" cy="159.98" rx="3.45652" ry="3.21853" fill="white" fill-opacity="0.3"/>
<ellipse cx="3.45652" cy="194.311" rx="3.45652" ry="3.21853" fill="white" fill-opacity="0.3"/>
<ellipse cx="21.8913" cy="108.483" rx="3.45652" ry="3.21853" fill="white" fill-opacity="0.3"/>
<ellipse cx="21.8913" cy="125.649" rx="3.45652" ry="3.21853" fill="white" fill-opacity="0.3"/>
<ellipse cx="21.8913" cy="142.814" rx="3.45652" ry="3.21853" fill="white" fill-opacity="0.3"/>
<ellipse cx="21.8913" cy="177.145" rx="3.45652" ry="3.21853" fill="white" fill-opacity="0.3"/>
<ellipse cx="21.8913" cy="159.98" rx="3.45652" ry="3.21853" fill="white" fill-opacity="0.3"/>
<ellipse cx="21.8913" cy="194.311" rx="3.45652" ry="3.21853" fill="white" fill-opacity="0.3"/>
<ellipse cx="40.326" cy="108.483" rx="3.45652" ry="3.21853" fill="white" fill-opacity="0.3"/>
<ellipse cx="40.326" cy="125.649" rx="3.45652" ry="3.21853" fill="white" fill-opacity="0.3"/>
<ellipse cx="40.326" cy="142.814" rx="3.45652" ry="3.21853" fill="white" fill-opacity="0.3"/>
<ellipse cx="40.326" cy="177.145" rx="3.45652" ry="3.21853" fill="white" fill-opacity="0.3"/>
<ellipse cx="40.326" cy="159.98" rx="3.45652" ry="3.21853" fill="white" fill-opacity="0.3"/>
<ellipse cx="40.326" cy="194.311" rx="3.45652" ry="3.21853" fill="white" fill-opacity="0.3"/>
<ellipse cx="58.7608" cy="108.483" rx="3.45652" ry="3.21853" fill="white" fill-opacity="0.3"/>
<ellipse cx="95.6303" cy="108.483" rx="3.45652" ry="3.21853" fill="white" fill-opacity="0.3"/>
<ellipse cx="77.1956" cy="108.483" rx="3.45652" ry="3.21853" fill="white" fill-opacity="0.3"/>
<ellipse cx="58.7608" cy="125.649" rx="3.45652" ry="3.21853" fill="white" fill-opacity="0.3"/>
<ellipse cx="95.6303" cy="125.649" rx="3.45652" ry="3.21853" fill="white" fill-opacity="0.3"/>
<ellipse cx="77.1956" cy="125.649" rx="3.45652" ry="3.21853" fill="white" fill-opacity="0.3"/>
<ellipse cx="58.7608" cy="142.814" rx="3.45652" ry="3.21853" fill="white" fill-opacity="0.3"/>
<ellipse cx="58.7608" cy="177.145" rx="3.45652" ry="3.21853" fill="white" fill-opacity="0.3"/>
<ellipse cx="95.6303" cy="142.814" rx="3.45652" ry="3.21853" fill="white" fill-opacity="0.3"/>
<ellipse cx="95.6303" cy="177.145" rx="3.45652" ry="3.21853" fill="white" fill-opacity="0.3"/>
<ellipse cx="77.1956" cy="142.814" rx="3.45652" ry="3.21853" fill="white" fill-opacity="0.3"/>
<ellipse cx="77.1956" cy="177.145" rx="3.45652" ry="3.21853" fill="white" fill-opacity="0.3"/>
<ellipse cx="58.7608" cy="159.98" rx="3.45652" ry="3.21853" fill="white" fill-opacity="0.3"/>
<ellipse cx="58.7608" cy="194.311" rx="3.45652" ry="3.21853" fill="white" fill-opacity="0.3"/>
<ellipse cx="95.6303" cy="159.98" rx="3.45652" ry="3.21853" fill="white" fill-opacity="0.3"/>
<ellipse cx="95.6303" cy="194.311" rx="3.45652" ry="3.21853" fill="white" fill-opacity="0.3"/>
<ellipse cx="77.1956" cy="159.98" rx="3.45652" ry="3.21853" fill="white" fill-opacity="0.3"/>
<ellipse cx="77.1956" cy="194.311" rx="3.45652" ry="3.21853" fill="white" fill-opacity="0.3"/>
</svg>
